<svg class="account-icon" xmlns="http://www.w3.org/2000/svg" xmlns:xlink="http://www.w3.org/1999/xlink" version="1.1" x="0px" y="0px" viewBox="0 0 64 80" enable-background="new 0 0 64 64" xml:space="preserve"><path d="M32,12.538c2.915,0,5.573,1.172,7.487,3.087c1.915,1.915,3.087,4.544,3.087,7.487c0,2.915-1.172,5.544-3.087,7.459  c-1.914,1.915-4.572,3.115-7.487,3.115s-5.572-1.2-7.487-3.115c-1.886-1.915-3.087-4.544-3.087-7.459  c0-2.943,1.201-5.572,3.087-7.487C26.428,13.71,29.085,12.538,32,12.538L32,12.538z M32,2.765c8.088,0,15.375,3.286,20.69,8.573  c5.287,5.287,8.545,12.604,8.545,20.662c0,8.088-3.258,15.375-8.545,20.69c-4.744,4.716-11.088,7.831-18.118,8.431l-0.2,0.029l0,0  h-0.171l-0.172,0.028h-0.143h-0.058l-0.257,0.028h-0.058h-0.028H33.2h-0.057l-0.028,0.028h-0.029h-0.257h-0.058h-0.028h-0.028  h-0.286h-0.057l0,0h-0.029H32h-0.343h-0.028l0,0h-0.058h-0.286h-0.028l0,0H31.2h-0.286l0,0l-0.028-0.028H30.8h-0.257h-0.029h-0.086  l-0.257-0.028h-0.057H30l-0.2-0.028h-0.144h-0.028l-0.171-0.029c-7.06-0.6-13.403-3.715-18.119-8.431  C6.052,47.375,2.765,40.088,2.765,32c0-8.059,3.287-15.375,8.573-20.662C16.625,6.051,23.941,2.765,32,2.765L32,2.765z   M51.262,12.767C46.317,7.823,39.517,4.794,32,4.794c-7.516,0-14.317,3.029-19.232,7.973C7.823,17.683,4.794,24.484,4.794,32  c0,6.63,2.372,12.718,6.315,17.433V48.29c0-3.087,1.258-5.888,3.287-7.916c2.028-2.029,4.829-3.287,7.887-3.287h19.434  c3.086,0,5.887,1.258,7.916,3.287c2,2.028,3.286,4.829,3.286,7.916v1.143C56.863,44.718,59.234,38.63,59.234,32  C59.234,24.484,56.177,17.683,51.262,12.767L51.262,12.767z M13.11,51.604c4.658,4.487,10.916,7.345,17.832,7.603l0,0h0.028h0.314  h0.029l0,0l0.343,0.028l0,0H32h0.343l0,0l0.344-0.028h0.028h0.028c0.086,0,0.2,0,0.286,0h0.028h0.028  c6.888-0.258,13.146-3.115,17.804-7.603V48.29c0-2.544-1.028-4.83-2.686-6.487c-1.687-1.658-3.973-2.687-6.487-2.687H22.283  c-2.515,0-4.801,1.028-6.458,2.687c-1.687,1.657-2.715,3.943-2.715,6.487V51.604z M32.743,59.207c0.086,0,0.2,0,0.286,0   M38.059,17.054c-1.543-1.543-3.687-2.515-6.059-2.515s-4.486,0.972-6.059,2.515c-1.543,1.543-2.486,3.687-2.486,6.059  c0,2.344,0.943,4.487,2.486,6.03c1.572,1.571,3.687,2.515,6.059,2.515s4.516-0.943,6.059-2.515c1.543-1.543,2.515-3.687,2.515-6.03  C40.573,20.74,39.602,18.597,38.059,17.054L38.059,17.054z"/></svg>